<?xml version="1.0" encoding="iso-8859-1"?>
<!-- Uploaded to: SVG Repo, www.svgrepo.com, Generator: SVG Repo Mixer Tools -->
<svg height="25px" width="25px" version="1.1" id="Layer_1" xmlns="http://www.w3.org/2000/svg" xmlns:xlink="http://www.w3.org/1999/xlink" 
	 viewBox="0 0 512 512" xml:space="preserve">
<g transform="translate(1 1)">
	<polygon style="fill:#E2E3E5;" points="235.308,501.154 511,501.154 511,8.846 235.308,8.846 	"/>
	<polygon style="fill:#F0F0F0;" points="166.385,501.154 511,501.154 511,402.692 166.385,402.692 	"/>
	<polygon style="fill:#CCCCCC;" points="205.769,501.154 481.462,501.154 481.462,8.846 205.769,8.846 	"/>
	<polygon style="fill:#FFFFFF;" points="8.846,501.154 284.538,501.154 284.538,8.846 8.846,8.846 	"/>
	<polygon style="fill:#E2E3E5;" points="38.385,501.154 451.923,501.154 451.923,8.846 38.385,8.846 	"/>
	<g>
		<polygon style="fill:#E0E0E0;" points="136.846,501.154 481.462,501.154 481.462,402.692 136.846,402.692 		"/>
		<path style="fill:#E0E0E0;" d="M172.292,182.138c0,24.615-19.692,45.292-45.292,45.292s-45.292-19.692-45.292-45.292
			s20.677-45.292,45.292-45.292S172.292,156.538,172.292,182.138"/>
	</g>
	<path style="fill:#F0F0F0;" d="M137.831,182.138c0,24.615-12.8,45.292-28.554,45.292s-28.554-19.692-28.554-45.292
		s13.785-45.292,29.538-45.292S137.831,156.538,137.831,182.138"/>
	<polygon style="fill:#EEEEEE;" points="8.846,501.154 353.462,501.154 353.462,402.692 8.846,402.692 	"/>
	<polygon style="fill:#F0F0F0;" points="38.385,501.154 451.923,501.154 451.923,402.692 38.385,402.692 	"/>
	<g>
		<path style="fill:#B6B6B6;" d="M127,236.292c-30.523,0-55.138-24.615-55.138-55.138S96.477,127,127,127
			s55.138,24.615,55.138,55.138S157.523,236.292,127,236.292z M127,146.692c-19.692,0-35.446,15.754-35.446,35.446
			s15.754,35.446,35.446,35.446s35.446-15.754,35.446-35.446S146.692,146.692,127,146.692z"/>
		<path style="fill:#B6B6B6;" d="M38.385,412.538c-2.954,0-5.908-0.985-7.877-2.954c-3.938-3.938-2.954-9.846,0.985-13.785
			l167.385-147.692c3.938-2.954,9.846-2.954,13.785,0l108.308,108.308c3.938,3.938,3.938,9.846,0,13.785
			c-3.938,3.938-9.846,3.938-13.785,0L205.769,268.785L45.277,410.569C43.308,411.554,40.354,412.538,38.385,412.538z"/>
		<path style="fill:#B6B6B6;" d="M259.923,319c-1.969,0-4.923-0.985-6.892-2.954c-3.938-3.938-3.938-9.846-0.985-13.785
			l103.385-113.231c1.969-1.969,3.938-2.954,6.892-2.954c2.954,0,4.923,0.985,6.892,2.954l118.154,108.308
			c3.938,3.938,3.938,9.846,0.985,13.785c-3.938,3.938-9.846,3.938-13.785,0.985l-110.277-102.4L267.8,316.046
			C264.846,318.015,262.877,319,259.923,319z"/>
		<path style="fill:#B6B6B6;" d="M481.462,511H8.846C2.938,511-1,507.062-1,501.154V8.846C-1,2.938,2.938-1,8.846-1h472.615
			c5.908,0,9.846,3.938,9.846,9.846v492.308C491.308,507.062,487.369,511,481.462,511z M18.692,491.308h452.923V18.692H18.692
			V491.308z"/>
		<path style="fill:#B6B6B6;" d="M481.462,511H8.846C2.938,511-1,507.062-1,501.154v-98.462c0-5.908,3.938-9.846,9.846-9.846
			h472.615c5.908,0,9.846,3.938,9.846,9.846v98.462C491.308,507.062,487.369,511,481.462,511z M18.692,491.308h452.923v-78.769
			H18.692V491.308z"/>
	</g>
</g>
</svg>