<?xml version="1.0" encoding="utf-8"?>
<!-- Generator: Adobe Illustrator 22.0.0, SVG Export Plug-In . SVG Version: 6.00 Build 0)  -->
<svg version="1.0" id="Layer_1" xmlns="http://www.w3.org/2000/svg" xmlns:xlink="http://www.w3.org/1999/xlink" x="0px" y="0px"
	 viewBox="0 0 5000 4000" style="enable-background:new 0 0 5000 4000;" xml:space="preserve">
<style type="text/css">
	.st0{fill:#333333;}
	.st1{fill:#4D4D4D;}
</style>
<path class="st0" d="M3912.9,493.5H1070c-391.9,0-710.7,318.8-710.7,710.7v1585.4c0,391.9,318.8,710.7,710.7,710.7h2842.9
	c391.9,0,710.7-318.8,710.7-710.7V1204.2C4623.6,812.3,4304.8,493.5,3912.9,493.5z M3638.3,628.3h248.4v248.4h-248.4V628.3z
	 M3214.7,628.3h248.4v248.4h-248.4V628.3z M2791,628.3h248.4v248.4H2791V628.3z M2367.3,628.3h248.4v248.4h-248.4V628.3z
	 M1943.6,628.3H2192v248.4h-248.4V628.3z M1519.9,628.3h248.4v248.4h-248.4V628.3z M1096.2,628.3h248.4v248.4h-248.4V628.3z
	 M729.6,2968.6H481.1v-248.4h248.4V2968.6z M729.6,2544.9H481.1v-248.4h248.4V2544.9z M729.6,2121.2H481.1v-248.4h248.4V2121.2z
	 M729.6,1697.5H481.1V1449h248.4V1697.5z M729.6,1273.8H481.1v-248.4h248.4V1273.8z M1344.6,3369.9h-248.4v-248.4h248.4V3369.9z
	 M1768.3,3369.9h-248.4v-248.4h248.4V3369.9z M2192,3369.9h-248.4v-248.4H2192V3369.9z M2615.7,3369.9h-248.4v-248.4h248.4V3369.9z
	 M3039.4,3369.9H2791v-248.4h248.4V3369.9z M3463.1,3369.9h-248.4v-248.4h248.4V3369.9z M3886.8,3369.9h-248.4v-248.4h248.4V3369.9z
	 M4131.6,2789.7c0,120.6-98.1,218.7-218.7,218.7H1070c-120.6,0-218.7-98.1-218.7-218.7V1204.2c0-120.6,98.1-218.7,218.7-218.7
	h2842.9c120.6,0,218.7,98.1,218.7,218.7V2789.7z M4501.8,2968.6h-248.4v-248.4h248.4V2968.6z M4501.8,2544.9h-248.4v-248.4h248.4
	V2544.9z M4501.8,2121.2h-248.4v-248.4h248.4V2121.2z M4501.8,1697.5h-248.4V1449h248.4V1697.5z M4501.8,1273.8h-248.4v-248.4h248.4
	V1273.8z"/>
<g>
	<path class="st1" d="M3303.3,1909l-1637.9-800c-66.3-32.4-143.5,15.9-143.5,89.6v1598.2c0,72.6,76.1,120.1,141.3,88.2L3303.3,2084
		C3376.1,2048.4,3376.1,1944.6,3303.3,1909z"/>
	<path class="st0" d="M3407.5,1910.7l-1644-803c-65-31.8-140.8,15.6-140.8,87.9v1604.1c0,71.2,74.6,117.8,138.6,86.6l1646.2-804
		C3478.9,2047.4,3478.9,1945.6,3407.5,1910.7z"/>
</g>
</svg>
